  0
SECTION
  2
HEADER
  9
$ACADVER
  1
AC1009
  9
$EXTMIN
 10
0.0
 20
0.0
 30
0.0
  9
$EXTMAX
 10
1000.0
 20
1000.0
 30
0.0
  9
$FILLMODE
 70
 0
  9
$SPLFRAME
 70
 1
  0
ENDSEC
  0
SECTION
  2
TABLES
  0
TABLE
  2
LAYER
 70
1
  0
LAYER
  2
0
 70
     0
 62
     7
  6
CONTINUOUS
  0
ENDTAB
  0
ENDSEC
  0
SECTION
  2
ENTITIES
  0
LINE
  8
0
 62
     0
 10
349.472
 20
134.666
 30
0.0
 11
349.785
 21
134.654
 31
0.0
  0
LINE
  8
0
 62
     0
 10
349.785
 20
134.654
 30
0.0
 11
350.096
 21
134.616
 31
0.0
  0
LINE
  8
0
 62
     0
 10
350.096
 20
134.616
 30
0.0
 11
350.405
 21
134.556
 31
0.0
  0
LINE
  8
0
 62
     0
 10
350.405
 20
134.556
 30
0.0
 11
350.708
 21
134.47
 31
0.0
  0
LINE
  8
0
 62
     0
 10
350.708
 20
134.47
 30
0.0
 11
351.002
 21
134.361
 31
0.0
  0
LINE
  8
0
 62
     0
 10
351.002
 20
134.361
 30
0.0
 11
351.287
 21
134.231
 31
0.0
  0
LINE
  8
0
 62
     0
 10
351.287
 20
134.231
 30
0.0
 11
351.561
 21
134.076
 31
0.0
  0
LINE
  8
0
 62
     0
 10
351.561
 20
134.076
 30
0.0
 11
351.823
 21
133.902
 31
0.0
  0
LINE
  8
0
 62
     0
 10
351.823
 20
133.902
 30
0.0
 11
352.068
 21
133.708
 31
0.0
  0
LINE
  8
0
 62
     0
 10
352.068
 20
133.708
 30
0.0
 11
352.3
 21
133.495
 31
0.0
  0
LINE
  8
0
 62
     0
 10
352.3
 20
133.495
 30
0.0
 11
352.512
 21
133.263
 31
0.0
  0
LINE
  8
0
 62
     0
 10
352.512
 20
133.263
 30
0.0
 11
352.708
 21
133.018
 31
0.0
  0
LINE
  8
0
 62
     0
 10
352.708
 20
133.018
 30
0.0
 11
352.88
 21
132.756
 31
0.0
  0
LINE
  8
0
 62
     0
 10
352.88
 20
132.756
 30
0.0
 11
353.035
 21
132.482
 31
0.0
  0
LINE
  8
0
 62
     0
 10
353.035
 20
132.482
 30
0.0
 11
353.166
 21
132.196
 31
0.0
  0
LINE
  8
0
 62
     0
 10
353.166
 20
132.196
 30
0.0
 11
353.275
 21
131.903
 31
0.0
  0
LINE
  8
0
 62
     0
 10
353.275
 20
131.903
 30
0.0
 11
353.36
 21
131.6
 31
0.0
  0
LINE
  8
0
 62
     0
 10
353.36
 20
131.6
 30
0.0
 11
353.42
 21
131.291
 31
0.0
  0
LINE
  8
0
 62
     0
 10
353.42
 20
131.291
 30
0.0
 11
353.459
 21
130.98
 31
0.0
  0
LINE
  8
0
 62
     0
 10
353.459
 20
130.98
 30
0.0
 11
353.469
 21
130.666
 31
0.0
  0
LINE
  8
0
 62
     0
 10
353.469
 20
130.666
 30
0.0
 11
353.469
 21
4.36425
 31
0.0
  0
LINE
  8
0
 62
     0
 10
353.469
 20
4.36425
 30
0.0
 11
353.459
 21
4.05144
 31
0.0
  0
LINE
  8
0
 62
     0
 10
353.459
 20
4.05144
 30
0.0
 11
353.42
 21
3.74001
 31
0.0
  0
LINE
  8
0
 62
     0
 10
353.42
 20
3.74001
 30
0.0
 11
353.36
 21
3.43131
 31
0.0
  0
LINE
  8
0
 62
     0
 10
353.36
 20
3.43131
 30
0.0
 11
353.275
 21
3.12815
 31
0.0
  0
LINE
  8
0
 62
     0
 10
353.275
 20
3.12815
 30
0.0
 11
353.166
 21
2.83463
 31
0.0
  0
LINE
  8
0
 62
     0
 10
353.166
 20
2.83463
 30
0.0
 11
353.035
 21
2.54937
 31
0.0
  0
LINE
  8
0
 62
     0
 10
353.035
 20
2.54937
 30
0.0
 11
352.88
 21
2.27514
 31
0.0
  0
LINE
  8
0
 62
     0
 10
352.88
 20
2.27514
 30
0.0
 11
352.708
 21
2.01331
 31
0.0
  0
LINE
  8
0
 62
     0
 10
352.708
 20
2.01331
 30
0.0
 11
352.512
 21
1.76802
 31
0.0
  0
LINE
  8
0
 62
     0
 10
352.512
 20
1.76802
 30
0.0
 11
352.3
 21
1.53651
 31
0.0
  0
LINE
  8
0
 62
     0
 10
352.3
 20
1.53651
 30
0.0
 11
352.068
 21
1.3243
 31
0.0
  0
LINE
  8
0
 62
     0
 10
352.068
 20
1.3243
 30
0.0
 11
351.823
 21
1.12861
 31
0.0
  0
LINE
  8
0
 62
     0
 10
351.823
 20
1.12861
 30
0.0
 11
351.561
 21
0.95498
 31
0.0
  0
LINE
  8
0
 62
     0
 10
351.561
 20
0.95498
 30
0.0
 11
351.287
 21
0.80064
 31
0.0
  0
LINE
  8
0
 62
     0
 10
351.287
 20
0.80064
 30
0.0
 11
351.002
 21
0.669727
 31
0.0
  0
LINE
  8
0
 62
     0
 10
351.002
 20
0.669727
 30
0.0
 11
350.708
 21
0.56086
 31
0.0
  0
LINE
  8
0
 62
     0
 10
350.708
 20
0.56086
 30
0.0
 11
350.405
 21
0.475424
 31
0.0
  0
LINE
  8
0
 62
     0
 10
350.405
 20
0.475424
 30
0.0
 11
350.096
 21
0.414789
 31
0.0
  0
LINE
  8
0
 62
     0
 10
350.096
 20
0.414789
 30
0.0
 11
349.785
 21
0.377582
 31
0.0
  0
LINE
  8
0
 62
     0
 10
349.785
 20
0.377582
 30
0.0
 11
349.472
 21
0.365181
 31
0.0
  0
LINE
  8
0
 62
     0
 10
349.472
 20
0.365181
 30
0.0
 11
4.09554
 21
0.365181
 31
0.0
  0
LINE
  8
0
 62
     0
 10
4.09554
 20
0.365181
 30
0.0
 11
3.78135
 21
0.377582
 31
0.0
  0
LINE
  8
0
 62
     0
 10
3.78135
 20
0.377582
 30
0.0
 11
3.4699
 21
0.414789
 31
0.0
  0
LINE
  8
0
 62
     0
 10
3.4699
 20
0.414789
 30
0.0
 11
3.16122
 21
0.475424
 31
0.0
  0
LINE
  8
0
 62
     0
 10
3.16122
 20
0.475424
 30
0.0
 11
2.85805
 21
0.56086
 31
0.0
  0
LINE
  8
0
 62
     0
 10
2.85805
 20
0.56086
 30
0.0
 11
2.56453
 21
0.669727
 31
0.0
  0
LINE
  8
0
 62
     0
 10
2.56453
 20
0.669727
 30
0.0
 11
2.27928
 21
0.80064
 31
0.0
  0
LINE
  8
0
 62
     0
 10
2.27928
 20
0.80064
 30
0.0
 11
2.00504
 21
0.95498
 31
0.0
  0
LINE
  8
0
 62
     0
 10
2.00504
 20
0.95498
 30
0.0
 11
1.74322
 21
1.12861
 31
0.0
  0
LINE
  8
0
 62
     0
 10
1.74322
 20
1.12861
 30
0.0
 11
1.49793
 21
1.3243
 31
0.0
  0
LINE
  8
0
 62
     0
 10
1.49793
 20
1.3243
 30
0.0
 11
1.26642
 21
1.53651
 31
0.0
  0
LINE
  8
0
 62
     0
 10
1.26642
 20
1.53651
 30
0.0
 11
1.05282
 21
1.76802
 31
0.0
  0
LINE
  8
0
 62
     0
 10
1.05282
 20
1.76802
 30
0.0
 11
0.858516
 21
2.01331
 31
0.0
  0
LINE
  8
0
 62
     0
 10
0.858516
 20
2.01331
 30
0.0
 11
0.684886
 21
2.27514
 31
0.0
  0
LINE
  8
0
 62
     0
 10
0.684886
 20
2.27514
 30
0.0
 11
0.530546
 21
2.54937
 31
0.0
  0
LINE
  8
0
 62
     0
 10
0.530546
 20
2.54937
 30
0.0
 11
0.39963
 21
2.83463
 31
0.0
  0
LINE
  8
0
 62
     0
 10
0.39963
 20
2.83463
 30
0.0
 11
0.290766
 21
3.12815
 31
0.0
  0
LINE
  8
0
 62
     0
 10
0.290766
 20
3.12815
 30
0.0
 11
0.205328
 21
3.43131
 31
0.0
  0
LINE
  8
0
 62
     0
 10
0.205328
 20
3.43131
 30
0.0
 11
0.144694
 21
3.74001
 31
0.0
  0
LINE
  8
0
 62
     0
 10
0.144694
 20
3.74001
 30
0.0
 11
0.107487
 21
4.05144
 31
0.0
  0
LINE
  8
0
 62
     0
 10
0.107487
 20
4.05144
 30
0.0
 11
0.0950846
 21
4.36425
 31
0.0
  0
LINE
  8
0
 62
     0
 10
0.0950846
 20
4.36425
 30
0.0
 11
0.0950846
 21
130.666
 31
0.0
  0
LINE
  8
0
 62
     0
 10
0.0950846
 20
130.666
 30
0.0
 11
0.107487
 21
130.98
 31
0.0
  0
LINE
  8
0
 62
     0
 10
0.107487
 20
130.98
 30
0.0
 11
0.144694
 21
131.291
 31
0.0
  0
LINE
  8
0
 62
     0
 10
0.144694
 20
131.291
 30
0.0
 11
0.205328
 21
131.6
 31
0.0
  0
LINE
  8
0
 62
     0
 10
0.205328
 20
131.6
 30
0.0
 11
0.290766
 21
131.903
 31
0.0
  0
LINE
  8
0
 62
     0
 10
0.290766
 20
131.903
 30
0.0
 11
0.39963
 21
132.196
 31
0.0
  0
LINE
  8
0
 62
     0
 10
0.39963
 20
132.196
 30
0.0
 11
0.530546
 21
132.482
 31
0.0
  0
LINE
  8
0
 62
     0
 10
0.530546
 20
132.482
 30
0.0
 11
0.684886
 21
132.756
 31
0.0
  0
LINE
  8
0
 62
     0
 10
0.684886
 20
132.756
 30
0.0
 11
0.858516
 21
133.018
 31
0.0
  0
LINE
  8
0
 62
     0
 10
0.858516
 20
133.018
 30
0.0
 11
1.05282
 21
133.263
 31
0.0
  0
LINE
  8
0
 62
     0
 10
1.05282
 20
133.263
 30
0.0
 11
1.26642
 21
133.495
 31
0.0
  0
LINE
  8
0
 62
     0
 10
1.26642
 20
133.495
 30
0.0
 11
1.49793
 21
133.708
 31
0.0
  0
LINE
  8
0
 62
     0
 10
1.49793
 20
133.708
 30
0.0
 11
1.74322
 21
133.902
 31
0.0
  0
LINE
  8
0
 62
     0
 10
1.74322
 20
133.902
 30
0.0
 11
2.00504
 21
134.076
 31
0.0
  0
LINE
  8
0
 62
     0
 10
2.00504
 20
134.076
 30
0.0
 11
2.27928
 21
134.231
 31
0.0
  0
LINE
  8
0
 62
     0
 10
2.27928
 20
134.231
 30
0.0
 11
2.56453
 21
134.361
 31
0.0
  0
LINE
  8
0
 62
     0
 10
2.56453
 20
134.361
 30
0.0
 11
2.85805
 21
134.47
 31
0.0
  0
LINE
  8
0
 62
     0
 10
2.85805
 20
134.47
 30
0.0
 11
3.16122
 21
134.556
 31
0.0
  0
LINE
  8
0
 62
     0
 10
3.16122
 20
134.556
 30
0.0
 11
3.4699
 21
134.616
 31
0.0
  0
LINE
  8
0
 62
     0
 10
3.4699
 20
134.616
 30
0.0
 11
3.78135
 21
134.654
 31
0.0
  0
LINE
  8
0
 62
     0
 10
3.78135
 20
134.654
 30
0.0
 11
4.09554
 21
134.666
 31
0.0
  0
LINE
  8
0
 62
     0
 10
4.09554
 20
134.666
 30
0.0
 11
349.472
 21
134.666
 31
0.0
  0
LINE
  8
0
 62
     0
 10
4.70877
 20
6.55394
 30
0.0
 11
4.36012
 21
6.37618
 31
0.0
  0
LINE
  8
0
 62
     0
 10
4.36012
 20
6.37618
 30
0.0
 11
4.08312
 21
6.09921
 31
0.0
  0
LINE
  8
0
 62
     0
 10
4.08312
 20
6.09921
 30
0.0
 11
3.90673
 21
5.75194
 31
0.0
  0
LINE
  8
0
 62
     0
 10
3.90673
 20
5.75194
 30
0.0
 11
3.84471
 21
5.36469
 31
0.0
  0
LINE
  8
0
 62
     0
 10
3.84471
 20
5.36469
 30
0.0
 11
3.90673
 21
4.97886
 31
0.0
  0
LINE
  8
0
 62
     0
 10
3.90673
 20
4.97886
 30
0.0
 11
4.08312
 21
4.63021
 31
0.0
  0
LINE
  8
0
 62
     0
 10
4.08312
 20
4.63021
 30
0.0
 11
4.36012
 21
4.35321
 31
0.0
  0
LINE
  8
0
 62
     0
 10
4.36012
 20
4.35321
 30
0.0
 11
4.70877
 21
4.17682
 31
0.0
  0
LINE
  8
0
 62
     0
 10
4.70877
 20
4.17682
 30
0.0
 11
5.0946
 21
4.11484
 31
0.0
  0
LINE
  8
0
 62
     0
 10
5.0946
 20
4.11484
 30
0.0
 11
5.48185
 21
4.17682
 31
0.0
  0
LINE
  8
0
 62
     0
 10
5.48185
 20
4.17682
 30
0.0
 11
5.82909
 21
4.35321
 31
0.0
  0
LINE
  8
0
 62
     0
 10
5.82909
 20
4.35321
 30
0.0
 11
6.10609
 21
4.63021
 31
0.0
  0
LINE
  8
0
 62
     0
 10
6.10609
 20
4.63021
 30
0.0
 11
6.28385
 21
4.97886
 31
0.0
  0
LINE
  8
0
 62
     0
 10
6.28385
 20
4.97886
 30
0.0
 11
6.3445
 21
5.36469
 31
0.0
  0
LINE
  8
0
 62
     0
 10
6.3445
 20
5.36469
 30
0.0
 11
6.28385
 21
5.75194
 31
0.0
  0
LINE
  8
0
 62
     0
 10
6.28385
 20
5.75194
 30
0.0
 11
6.10609
 21
6.09921
 31
0.0
  0
LINE
  8
0
 62
     0
 10
6.10609
 20
6.09921
 30
0.0
 11
5.82909
 21
6.37618
 31
0.0
  0
LINE
  8
0
 62
     0
 10
5.82909
 20
6.37618
 30
0.0
 11
5.48185
 21
6.55394
 31
0.0
  0
LINE
  8
0
 62
     0
 10
5.48185
 20
6.55394
 30
0.0
 11
5.0946
 21
6.61458
 31
0.0
  0
LINE
  8
0
 62
     0
 10
5.0946
 20
6.61458
 30
0.0
 11
4.70877
 21
6.55394
 31
0.0
  0
LINE
  8
0
 62
     0
 10
90.5524
 20
6.55394
 30
0.0
 11
90.2049
 21
6.37618
 31
0.0
  0
LINE
  8
0
 62
     0
 10
90.2049
 20
6.37618
 30
0.0
 11
89.928
 21
6.09921
 31
0.0
  0
LINE
  8
0
 62
     0
 10
89.928
 20
6.09921
 30
0.0
 11
89.7502
 21
5.75194
 31
0.0
  0
LINE
  8
0
 62
     0
 10
89.7502
 20
5.75194
 30
0.0
 11
89.6881
 21
5.36469
 31
0.0
  0
LINE
  8
0
 62
     0
 10
89.6881
 20
5.36469
 30
0.0
 11
89.7502
 21
4.97886
 31
0.0
  0
LINE
  8
0
 62
     0
 10
89.7502
 20
4.97886
 30
0.0
 11
89.928
 21
4.63021
 31
0.0
  0
LINE
  8
0
 62
     0
 10
89.928
 20
4.63021
 30
0.0
 11
90.2049
 21
4.35321
 31
0.0
  0
LINE
  8
0
 62
     0
 10
90.2049
 20
4.35321
 30
0.0
 11
90.5524
 21
4.17682
 31
0.0
  0
LINE
  8
0
 62
     0
 10
90.5524
 20
4.17682
 30
0.0
 11
90.9394
 21
4.11484
 31
0.0
  0
LINE
  8
0
 62
     0
 10
90.9394
 20
4.11484
 30
0.0
 11
91.3253
 21
4.17682
 31
0.0
  0
LINE
  8
0
 62
     0
 10
91.3253
 20
4.17682
 30
0.0
 11
91.6739
 21
4.35321
 31
0.0
  0
LINE
  8
0
 62
     0
 10
91.6739
 20
4.35321
 30
0.0
 11
91.9508
 21
4.63021
 31
0.0
  0
LINE
  8
0
 62
     0
 10
91.9508
 20
4.63021
 30
0.0
 11
92.1272
 21
4.97886
 31
0.0
  0
LINE
  8
0
 62
     0
 10
92.1272
 20
4.97886
 30
0.0
 11
92.1893
 21
5.36469
 31
0.0
  0
LINE
  8
0
 62
     0
 10
92.1893
 20
5.36469
 30
0.0
 11
92.1272
 21
5.75194
 31
0.0
  0
LINE
  8
0
 62
     0
 10
92.1272
 20
5.75194
 30
0.0
 11
91.9508
 21
6.09921
 31
0.0
  0
LINE
  8
0
 62
     0
 10
91.9508
 20
6.09921
 30
0.0
 11
91.6739
 21
6.37618
 31
0.0
  0
LINE
  8
0
 62
     0
 10
91.6739
 20
6.37618
 30
0.0
 11
91.3253
 21
6.55394
 31
0.0
  0
LINE
  8
0
 62
     0
 10
91.3253
 20
6.55394
 30
0.0
 11
90.9394
 21
6.61458
 31
0.0
  0
LINE
  8
0
 62
     0
 10
90.9394
 20
6.61458
 30
0.0
 11
90.5524
 21
6.55394
 31
0.0
  0
LINE
  8
0
 62
     0
 10
176.397
 20
6.55394
 30
0.0
 11
176.048
 21
6.37618
 31
0.0
  0
LINE
  8
0
 62
     0
 10
176.048
 20
6.37618
 30
0.0
 11
175.772
 21
6.09921
 31
0.0
  0
LINE
  8
0
 62
     0
 10
175.772
 20
6.09921
 30
0.0
 11
175.595
 21
5.75194
 31
0.0
  0
LINE
  8
0
 62
     0
 10
175.595
 20
5.75194
 30
0.0
 11
175.533
 21
5.36469
 31
0.0
  0
LINE
  8
0
 62
     0
 10
175.533
 20
5.36469
 30
0.0
 11
175.595
 21
4.97886
 31
0.0
  0
LINE
  8
0
 62
     0
 10
175.595
 20
4.97886
 30
0.0
 11
175.772
 21
4.63021
 31
0.0
  0
LINE
  8
0
 62
     0
 10
175.772
 20
4.63021
 30
0.0
 11
176.048
 21
4.35321
 31
0.0
  0
LINE
  8
0
 62
     0
 10
176.048
 20
4.35321
 30
0.0
 11
176.397
 21
4.17682
 31
0.0
  0
LINE
  8
0
 62
     0
 10
176.397
 20
4.17682
 30
0.0
 11
176.783
 21
4.11484
 31
0.0
  0
LINE
  8
0
 62
     0
 10
176.783
 20
4.11484
 30
0.0
 11
177.169
 21
4.17682
 31
0.0
  0
LINE
  8
0
 62
     0
 10
177.169
 20
4.17682
 30
0.0
 11
177.517
 21
4.35321
 31
0.0
  0
LINE
  8
0
 62
     0
 10
177.517
 20
4.35321
 30
0.0
 11
177.794
 21
4.63021
 31
0.0
  0
LINE
  8
0
 62
     0
 10
177.794
 20
4.63021
 30
0.0
 11
177.971
 21
4.97886
 31
0.0
  0
LINE
  8
0
 62
     0
 10
177.971
 20
4.97886
 30
0.0
 11
178.033
 21
5.36469
 31
0.0
  0
LINE
  8
0
 62
     0
 10
178.033
 20
5.36469
 30
0.0
 11
177.971
 21
5.75194
 31
0.0
  0
LINE
  8
0
 62
     0
 10
177.971
 20
5.75194
 30
0.0
 11
177.794
 21
6.09921
 31
0.0
  0
LINE
  8
0
 62
     0
 10
177.794
 20
6.09921
 30
0.0
 11
177.517
 21
6.37618
 31
0.0
  0
LINE
  8
0
 62
     0
 10
177.517
 20
6.37618
 30
0.0
 11
177.169
 21
6.55394
 31
0.0
  0
LINE
  8
0
 62
     0
 10
177.169
 20
6.55394
 30
0.0
 11
176.783
 21
6.61458
 31
0.0
  0
LINE
  8
0
 62
     0
 10
176.783
 20
6.61458
 30
0.0
 11
176.397
 21
6.55394
 31
0.0
  0
LINE
  8
0
 62
     0
 10
262.241
 20
6.55394
 30
0.0
 11
261.892
 21
6.37618
 31
0.0
  0
LINE
  8
0
 62
     0
 10
261.892
 20
6.37618
 30
0.0
 11
261.615
 21
6.09921
 31
0.0
  0
LINE
  8
0
 62
     0
 10
261.615
 20
6.09921
 30
0.0
 11
261.439
 21
5.75194
 31
0.0
  0
LINE
  8
0
 62
     0
 10
261.439
 20
5.75194
 30
0.0
 11
261.378
 21
5.36469
 31
0.0
  0
LINE
  8
0
 62
     0
 10
261.378
 20
5.36469
 30
0.0
 11
261.439
 21
4.97886
 31
0.0
  0
LINE
  8
0
 62
     0
 10
261.439
 20
4.97886
 30
0.0
 11
261.615
 21
4.63021
 31
0.0
  0
LINE
  8
0
 62
     0
 10
261.615
 20
4.63021
 30
0.0
 11
261.892
 21
4.35321
 31
0.0
  0
LINE
  8
0
 62
     0
 10
261.892
 20
4.35321
 30
0.0
 11
262.241
 21
4.17682
 31
0.0
  0
LINE
  8
0
 62
     0
 10
262.241
 20
4.17682
 30
0.0
 11
262.628
 21
4.11484
 31
0.0
  0
LINE
  8
0
 62
     0
 10
262.628
 20
4.11484
 30
0.0
 11
263.014
 21
4.17682
 31
0.0
  0
LINE
  8
0
 62
     0
 10
263.014
 20
4.17682
 30
0.0
 11
263.361
 21
4.35321
 31
0.0
  0
LINE
  8
0
 62
     0
 10
263.361
 20
4.35321
 30
0.0
 11
263.638
 21
4.63021
 31
0.0
  0
LINE
  8
0
 62
     0
 10
263.638
 20
4.63021
 30
0.0
 11
263.816
 21
4.97886
 31
0.0
  0
LINE
  8
0
 62
     0
 10
263.816
 20
4.97886
 30
0.0
 11
263.878
 21
5.36469
 31
0.0
  0
LINE
  8
0
 62
     0
 10
263.878
 20
5.36469
 30
0.0
 11
263.816
 21
5.75194
 31
0.0
  0
LINE
  8
0
 62
     0
 10
263.816
 20
5.75194
 30
0.0
 11
263.638
 21
6.09921
 31
0.0
  0
LINE
  8
0
 62
     0
 10
263.638
 20
6.09921
 30
0.0
 11
263.361
 21
6.37618
 31
0.0
  0
LINE
  8
0
 62
     0
 10
263.361
 20
6.37618
 30
0.0
 11
263.014
 21
6.55394
 31
0.0
  0
LINE
  8
0
 62
     0
 10
263.014
 20
6.55394
 30
0.0
 11
262.628
 21
6.61458
 31
0.0
  0
LINE
  8
0
 62
     0
 10
262.628
 20
6.61458
 30
0.0
 11
262.241
 21
6.55394
 31
0.0
  0
LINE
  8
0
 62
     0
 10
348.084
 20
6.55394
 30
0.0
 11
347.737
 21
6.37618
 31
0.0
  0
LINE
  8
0
 62
     0
 10
347.737
 20
6.37618
 30
0.0
 11
347.46
 21
6.09921
 31
0.0
  0
LINE
  8
0
 62
     0
 10
347.46
 20
6.09921
 30
0.0
 11
347.282
 21
5.75194
 31
0.0
  0
LINE
  8
0
 62
     0
 10
347.282
 20
5.75194
 30
0.0
 11
347.222
 21
5.36469
 31
0.0
  0
LINE
  8
0
 62
     0
 10
347.222
 20
5.36469
 30
0.0
 11
347.282
 21
4.97886
 31
0.0
  0
LINE
  8
0
 62
     0
 10
347.282
 20
4.97886
 30
0.0
 11
347.46
 21
4.63021
 31
0.0
  0
LINE
  8
0
 62
     0
 10
347.46
 20
4.63021
 30
0.0
 11
347.737
 21
4.35321
 31
0.0
  0
LINE
  8
0
 62
     0
 10
347.737
 20
4.35321
 30
0.0
 11
348.084
 21
4.17682
 31
0.0
  0
LINE
  8
0
 62
     0
 10
348.084
 20
4.17682
 30
0.0
 11
348.471
 21
4.11484
 31
0.0
  0
LINE
  8
0
 62
     0
 10
348.471
 20
4.11484
 30
0.0
 11
348.857
 21
4.17682
 31
0.0
  0
LINE
  8
0
 62
     0
 10
348.857
 20
4.17682
 30
0.0
 11
349.206
 21
4.35321
 31
0.0
  0
LINE
  8
0
 62
     0
 10
349.206
 20
4.35321
 30
0.0
 11
349.483
 21
4.63021
 31
0.0
  0
LINE
  8
0
 62
     0
 10
349.483
 20
4.63021
 30
0.0
 11
349.659
 21
4.97886
 31
0.0
  0
LINE
  8
0
 62
     0
 10
349.659
 20
4.97886
 30
0.0
 11
349.721
 21
5.36469
 31
0.0
  0
LINE
  8
0
 62
     0
 10
349.721
 20
5.36469
 30
0.0
 11
349.659
 21
5.75194
 31
0.0
  0
LINE
  8
0
 62
     0
 10
349.659
 20
5.75194
 30
0.0
 11
349.483
 21
6.09921
 31
0.0
  0
LINE
  8
0
 62
     0
 10
349.483
 20
6.09921
 30
0.0
 11
349.206
 21
6.37618
 31
0.0
  0
LINE
  8
0
 62
     0
 10
349.206
 20
6.37618
 30
0.0
 11
348.857
 21
6.55394
 31
0.0
  0
LINE
  8
0
 62
     0
 10
348.857
 20
6.55394
 30
0.0
 11
348.471
 21
6.61458
 31
0.0
  0
LINE
  8
0
 62
     0
 10
348.471
 20
6.61458
 30
0.0
 11
348.084
 21
6.55394
 31
0.0
  0
LINE
  8
0
 62
     0
 10
4.70877
 20
68.7049
 30
0.0
 11
4.36012
 21
68.5271
 31
0.0
  0
LINE
  8
0
 62
     0
 10
4.36012
 20
68.5271
 30
0.0
 11
4.08312
 21
68.2502
 31
0.0
  0
LINE
  8
0
 62
     0
 10
4.08312
 20
68.2502
 30
0.0
 11
3.90673
 21
67.9016
 31
0.0
  0
LINE
  8
0
 62
     0
 10
3.90673
 20
67.9016
 30
0.0
 11
3.84471
 21
67.5157
 31
0.0
  0
LINE
  8
0
 62
     0
 10
3.84471
 20
67.5157
 30
0.0
 11
3.90673
 21
67.1297
 31
0.0
  0
LINE
  8
0
 62
     0
 10
3.90673
 20
67.1297
 30
0.0
 11
4.08312
 21
66.7812
 31
0.0
  0
LINE
  8
0
 62
     0
 10
4.08312
 20
66.7812
 30
0.0
 11
4.36012
 21
66.5043
 31
0.0
  0
LINE
  8
0
 62
     0
 10
4.36012
 20
66.5043
 30
0.0
 11
4.70877
 21
66.3265
 31
0.0
  0
LINE
  8
0
 62
     0
 10
4.70877
 20
66.3265
 30
0.0
 11
5.0946
 21
66.2658
 31
0.0
  0
LINE
  8
0
 62
     0
 10
5.0946
 20
66.2658
 30
0.0
 11
5.48185
 21
66.3265
 31
0.0
  0
LINE
  8
0
 62
     0
 10
5.48185
 20
66.3265
 30
0.0
 11
5.82909
 21
66.5043
 31
0.0
  0
LINE
  8
0
 62
     0
 10
5.82909
 20
66.5043
 30
0.0
 11
6.10609
 21
66.7812
 31
0.0
  0
LINE
  8
0
 62
     0
 10
6.10609
 20
66.7812
 30
0.0
 11
6.28385
 21
67.1297
 31
0.0
  0
LINE
  8
0
 62
     0
 10
6.28385
 20
67.1297
 30
0.0
 11
6.3445
 21
67.5157
 31
0.0
  0
LINE
  8
0
 62
     0
 10
6.3445
 20
67.5157
 30
0.0
 11
6.28385
 21
67.9016
 31
0.0
  0
LINE
  8
0
 62
     0
 10
6.28385
 20
67.9016
 30
0.0
 11
6.10609
 21
68.2502
 31
0.0
  0
LINE
  8
0
 62
     0
 10
6.10609
 20
68.2502
 30
0.0
 11
5.82909
 21
68.5271
 31
0.0
  0
LINE
  8
0
 62
     0
 10
5.82909
 20
68.5271
 30
0.0
 11
5.48185
 21
68.7049
 31
0.0
  0
LINE
  8
0
 62
     0
 10
5.48185
 20
68.7049
 30
0.0
 11
5.0946
 21
68.7656
 31
0.0
  0
LINE
  8
0
 62
     0
 10
5.0946
 20
68.7656
 30
0.0
 11
4.70877
 21
68.7049
 31
0.0
  0
LINE
  8
0
 62
     0
 10
348.084
 20
68.7049
 30
0.0
 11
347.737
 21
68.5271
 31
0.0
  0
LINE
  8
0
 62
     0
 10
347.737
 20
68.5271
 30
0.0
 11
347.46
 21
68.2502
 31
0.0
  0
LINE
  8
0
 62
     0
 10
347.46
 20
68.2502
 30
0.0
 11
347.282
 21
67.9016
 31
0.0
  0
LINE
  8
0
 62
     0
 10
347.282
 20
67.9016
 30
0.0
 11
347.222
 21
67.5157
 31
0.0
  0
LINE
  8
0
 62
     0
 10
347.222
 20
67.5157
 30
0.0
 11
347.282
 21
67.1297
 31
0.0
  0
LINE
  8
0
 62
     0
 10
347.282
 20
67.1297
 30
0.0
 11
347.46
 21
66.7812
 31
0.0
  0
LINE
  8
0
 62
     0
 10
347.46
 20
66.7812
 30
0.0
 11
347.737
 21
66.5043
 31
0.0
  0
LINE
  8
0
 62
     0
 10
347.737
 20
66.5043
 30
0.0
 11
348.084
 21
66.3265
 31
0.0
  0
LINE
  8
0
 62
     0
 10
348.084
 20
66.3265
 30
0.0
 11
348.471
 21
66.2658
 31
0.0
  0
LINE
  8
0
 62
     0
 10
348.471
 20
66.2658
 30
0.0
 11
348.857
 21
66.3265
 31
0.0
  0
LINE
  8
0
 62
     0
 10
348.857
 20
66.3265
 30
0.0
 11
349.206
 21
66.5043
 31
0.0
  0
LINE
  8
0
 62
     0
 10
349.206
 20
66.5043
 30
0.0
 11
349.483
 21
66.7812
 31
0.0
  0
LINE
  8
0
 62
     0
 10
349.483
 20
66.7812
 30
0.0
 11
349.659
 21
67.1297
 31
0.0
  0
LINE
  8
0
 62
     0
 10
349.659
 20
67.1297
 30
0.0
 11
349.721
 21
67.5157
 31
0.0
  0
LINE
  8
0
 62
     0
 10
349.721
 20
67.5157
 30
0.0
 11
349.659
 21
67.9016
 31
0.0
  0
LINE
  8
0
 62
     0
 10
349.659
 20
67.9016
 30
0.0
 11
349.483
 21
68.2502
 31
0.0
  0
LINE
  8
0
 62
     0
 10
349.483
 20
68.2502
 30
0.0
 11
349.206
 21
68.5271
 31
0.0
  0
LINE
  8
0
 62
     0
 10
349.206
 20
68.5271
 30
0.0
 11
348.857
 21
68.7049
 31
0.0
  0
LINE
  8
0
 62
     0
 10
348.857
 20
68.7049
 30
0.0
 11
348.471
 21
68.7656
 31
0.0
  0
LINE
  8
0
 62
     0
 10
348.471
 20
68.7656
 30
0.0
 11
348.084
 21
68.7049
 31
0.0
  0
LINE
  8
0
 62
     0
 10
4.70877
 20
130.854
 30
0.0
 11
4.36012
 21
130.678
 31
0.0
  0
LINE
  8
0
 62
     0
 10
4.36012
 20
130.678
 30
0.0
 11
4.08312
 21
130.401
 31
0.0
  0
LINE
  8
0
 62
     0
 10
4.08312
 20
130.401
 30
0.0
 11
3.90673
 21
130.052
 31
0.0
  0
LINE
  8
0
 62
     0
 10
3.90673
 20
130.052
 30
0.0
 11
3.84471
 21
129.665
 31
0.0
  0
LINE
  8
0
 62
     0
 10
3.84471
 20
129.665
 30
0.0
 11
3.90673
 21
129.279
 31
0.0
  0
LINE
  8
0
 62
     0
 10
3.90673
 20
129.279
 30
0.0
 11
4.08312
 21
128.932
 31
0.0
  0
LINE
  8
0
 62
     0
 10
4.08312
 20
128.932
 30
0.0
 11
4.36012
 21
128.655
 31
0.0
  0
LINE
  8
0
 62
     0
 10
4.36012
 20
128.655
 30
0.0
 11
4.70877
 21
128.477
 31
0.0
  0
LINE
  8
0
 62
     0
 10
4.70877
 20
128.477
 30
0.0
 11
5.0946
 21
128.415
 31
0.0
  0
LINE
  8
0
 62
     0
 10
5.0946
 20
128.415
 30
0.0
 11
5.48185
 21
128.477
 31
0.0
  0
LINE
  8
0
 62
     0
 10
5.48185
 20
128.477
 30
0.0
 11
5.82909
 21
128.655
 31
0.0
  0
LINE
  8
0
 62
     0
 10
5.82909
 20
128.655
 30
0.0
 11
6.10609
 21
128.932
 31
0.0
  0
LINE
  8
0
 62
     0
 10
6.10609
 20
128.932
 30
0.0
 11
6.28385
 21
129.279
 31
0.0
  0
LINE
  8
0
 62
     0
 10
6.28385
 20
129.279
 30
0.0
 11
6.3445
 21
129.665
 31
0.0
  0
LINE
  8
0
 62
     0
 10
6.3445
 20
129.665
 30
0.0
 11
6.28385
 21
130.052
 31
0.0
  0
LINE
  8
0
 62
     0
 10
6.28385
 20
130.052
 30
0.0
 11
6.10609
 21
130.401
 31
0.0
  0
LINE
  8
0
 62
     0
 10
6.10609
 20
130.401
 30
0.0
 11
5.82909
 21
130.678
 31
0.0
  0
LINE
  8
0
 62
     0
 10
5.82909
 20
130.678
 30
0.0
 11
5.48185
 21
130.854
 31
0.0
  0
LINE
  8
0
 62
     0
 10
5.48185
 20
130.854
 30
0.0
 11
5.0946
 21
130.915
 31
0.0
  0
LINE
  8
0
 62
     0
 10
5.0946
 20
130.915
 30
0.0
 11
4.70877
 21
130.854
 31
0.0
  0
LINE
  8
0
 62
     0
 10
348.084
 20
130.854
 30
0.0
 11
347.737
 21
130.678
 31
0.0
  0
LINE
  8
0
 62
     0
 10
347.737
 20
130.678
 30
0.0
 11
347.46
 21
130.401
 31
0.0
  0
LINE
  8
0
 62
     0
 10
347.46
 20
130.401
 30
0.0
 11
347.282
 21
130.052
 31
0.0
  0
LINE
  8
0
 62
     0
 10
347.282
 20
130.052
 30
0.0
 11
347.222
 21
129.665
 31
0.0
  0
LINE
  8
0
 62
     0
 10
347.222
 20
129.665
 30
0.0
 11
347.282
 21
129.279
 31
0.0
  0
LINE
  8
0
 62
     0
 10
347.282
 20
129.279
 30
0.0
 11
347.46
 21
128.932
 31
0.0
  0
LINE
  8
0
 62
     0
 10
347.46
 20
128.932
 30
0.0
 11
347.737
 21
128.655
 31
0.0
  0
LINE
  8
0
 62
     0
 10
347.737
 20
128.655
 30
0.0
 11
348.084
 21
128.477
 31
0.0
  0
LINE
  8
0
 62
     0
 10
348.084
 20
128.477
 30
0.0
 11
348.471
 21
128.415
 31
0.0
  0
LINE
  8
0
 62
     0
 10
348.471
 20
128.415
 30
0.0
 11
348.857
 21
128.477
 31
0.0
  0
LINE
  8
0
 62
     0
 10
348.857
 20
128.477
 30
0.0
 11
349.206
 21
128.655
 31
0.0
  0
LINE
  8
0
 62
     0
 10
349.206
 20
128.655
 30
0.0
 11
349.483
 21
128.932
 31
0.0
  0
LINE
  8
0
 62
     0
 10
349.483
 20
128.932
 30
0.0
 11
349.659
 21
129.279
 31
0.0
  0
LINE
  8
0
 62
     0
 10
349.659
 20
129.279
 30
0.0
 11
349.721
 21
129.665
 31
0.0
  0
LINE
  8
0
 62
     0
 10
349.721
 20
129.665
 30
0.0
 11
349.659
 21
130.052
 31
0.0
  0
LINE
  8
0
 62
     0
 10
349.659
 20
130.052
 30
0.0
 11
349.483
 21
130.401
 31
0.0
  0
LINE
  8
0
 62
     0
 10
349.483
 20
130.401
 30
0.0
 11
349.206
 21
130.678
 31
0.0
  0
LINE
  8
0
 62
     0
 10
349.206
 20
130.678
 30
0.0
 11
348.857
 21
130.854
 31
0.0
  0
LINE
  8
0
 62
     0
 10
348.857
 20
130.854
 30
0.0
 11
348.471
 21
130.915
 31
0.0
  0
LINE
  8
0
 62
     0
 10
348.471
 20
130.915
 30
0.0
 11
348.084
 21
130.854
 31
0.0
  0
LINE
  8
0
 62
     0
 10
262.241
 20
130.854
 30
0.0
 11
261.892
 21
130.678
 31
0.0
  0
LINE
  8
0
 62
     0
 10
261.892
 20
130.678
 30
0.0
 11
261.615
 21
130.401
 31
0.0
  0
LINE
  8
0
 62
     0
 10
261.615
 20
130.401
 30
0.0
 11
261.439
 21
130.052
 31
0.0
  0
LINE
  8
0
 62
     0
 10
261.439
 20
130.052
 30
0.0
 11
261.378
 21
129.665
 31
0.0
  0
LINE
  8
0
 62
     0
 10
261.378
 20
129.665
 30
0.0
 11
261.439
 21
129.279
 31
0.0
  0
LINE
  8
0
 62
     0
 10
261.439
 20
129.279
 30
0.0
 11
261.615
 21
128.932
 31
0.0
  0
LINE
  8
0
 62
     0
 10
261.615
 20
128.932
 30
0.0
 11
261.892
 21
128.655
 31
0.0
  0
LINE
  8
0
 62
     0
 10
261.892
 20
128.655
 30
0.0
 11
262.241
 21
128.477
 31
0.0
  0
LINE
  8
0
 62
     0
 10
262.241
 20
128.477
 30
0.0
 11
262.628
 21
128.415
 31
0.0
  0
LINE
  8
0
 62
     0
 10
262.628
 20
128.415
 30
0.0
 11
263.014
 21
128.477
 31
0.0
  0
LINE
  8
0
 62
     0
 10
263.014
 20
128.477
 30
0.0
 11
263.361
 21
128.655
 31
0.0
  0
LINE
  8
0
 62
     0
 10
263.361
 20
128.655
 30
0.0
 11
263.638
 21
128.932
 31
0.0
  0
LINE
  8
0
 62
     0
 10
263.638
 20
128.932
 30
0.0
 11
263.816
 21
129.279
 31
0.0
  0
LINE
  8
0
 62
     0
 10
263.816
 20
129.279
 30
0.0
 11
263.878
 21
129.665
 31
0.0
  0
LINE
  8
0
 62
     0
 10
263.878
 20
129.665
 30
0.0
 11
263.816
 21
130.052
 31
0.0
  0
LINE
  8
0
 62
     0
 10
263.816
 20
130.052
 30
0.0
 11
263.638
 21
130.401
 31
0.0
  0
LINE
  8
0
 62
     0
 10
263.638
 20
130.401
 30
0.0
 11
263.361
 21
130.678
 31
0.0
  0
LINE
  8
0
 62
     0
 10
263.361
 20
130.678
 30
0.0
 11
263.014
 21
130.854
 31
0.0
  0
LINE
  8
0
 62
     0
 10
263.014
 20
130.854
 30
0.0
 11
262.628
 21
130.915
 31
0.0
  0
LINE
  8
0
 62
     0
 10
262.628
 20
130.915
 30
0.0
 11
262.241
 21
130.854
 31
0.0
  0
LINE
  8
0
 62
     0
 10
176.397
 20
130.854
 30
0.0
 11
176.048
 21
130.678
 31
0.0
  0
LINE
  8
0
 62
     0
 10
176.048
 20
130.678
 30
0.0
 11
175.772
 21
130.401
 31
0.0
  0
LINE
  8
0
 62
     0
 10
175.772
 20
130.401
 30
0.0
 11
175.595
 21
130.052
 31
0.0
  0
LINE
  8
0
 62
     0
 10
175.595
 20
130.052
 30
0.0
 11
175.533
 21
129.665
 31
0.0
  0
LINE
  8
0
 62
     0
 10
175.533
 20
129.665
 30
0.0
 11
175.595
 21
129.279
 31
0.0
  0
LINE
  8
0
 62
     0
 10
175.595
 20
129.279
 30
0.0
 11
175.772
 21
128.932
 31
0.0
  0
LINE
  8
0
 62
     0
 10
175.772
 20
128.932
 30
0.0
 11
176.048
 21
128.655
 31
0.0
  0
LINE
  8
0
 62
     0
 10
176.048
 20
128.655
 30
0.0
 11
176.397
 21
128.477
 31
0.0
  0
LINE
  8
0
 62
     0
 10
176.397
 20
128.477
 30
0.0
 11
176.783
 21
128.415
 31
0.0
  0
LINE
  8
0
 62
     0
 10
176.783
 20
128.415
 30
0.0
 11
177.169
 21
128.477
 31
0.0
  0
LINE
  8
0
 62
     0
 10
177.169
 20
128.477
 30
0.0
 11
177.517
 21
128.655
 31
0.0
  0
LINE
  8
0
 62
     0
 10
177.517
 20
128.655
 30
0.0
 11
177.794
 21
128.932
 31
0.0
  0
LINE
  8
0
 62
     0
 10
177.794
 20
128.932
 30
0.0
 11
177.971
 21
129.279
 31
0.0
  0
LINE
  8
0
 62
     0
 10
177.971
 20
129.279
 30
0.0
 11
178.033
 21
129.665
 31
0.0
  0
LINE
  8
0
 62
     0
 10
178.033
 20
129.665
 30
0.0
 11
177.971
 21
130.052
 31
0.0
  0
LINE
  8
0
 62
     0
 10
177.971
 20
130.052
 30
0.0
 11
177.794
 21
130.401
 31
0.0
  0
LINE
  8
0
 62
     0
 10
177.794
 20
130.401
 30
0.0
 11
177.517
 21
130.678
 31
0.0
  0
LINE
  8
0
 62
     0
 10
177.517
 20
130.678
 30
0.0
 11
177.169
 21
130.854
 31
0.0
  0
LINE
  8
0
 62
     0
 10
177.169
 20
130.854
 30
0.0
 11
176.783
 21
130.915
 31
0.0
  0
LINE
  8
0
 62
     0
 10
176.783
 20
130.915
 30
0.0
 11
176.397
 21
130.854
 31
0.0
  0
LINE
  8
0
 62
     0
 10
90.5524
 20
130.854
 30
0.0
 11
90.2049
 21
130.678
 31
0.0
  0
LINE
  8
0
 62
     0
 10
90.2049
 20
130.678
 30
0.0
 11
89.928
 21
130.401
 31
0.0
  0
LINE
  8
0
 62
     0
 10
89.928
 20
130.401
 30
0.0
 11
89.7502
 21
130.052
 31
0.0
  0
LINE
  8
0
 62
     0
 10
89.7502
 20
130.052
 30
0.0
 11
89.6895
 21
129.665
 31
0.0
  0
LINE
  8
0
 62
     0
 10
89.6895
 20
129.665
 30
0.0
 11
89.7502
 21
129.279
 31
0.0
  0
LINE
  8
0
 62
     0
 10
89.7502
 20
129.279
 30
0.0
 11
89.928
 21
128.932
 31
0.0
  0
LINE
  8
0
 62
     0
 10
89.928
 20
128.932
 30
0.0
 11
90.2049
 21
128.655
 31
0.0
  0
LINE
  8
0
 62
     0
 10
90.2049
 20
128.655
 30
0.0
 11
90.5524
 21
128.477
 31
0.0
  0
LINE
  8
0
 62
     0
 10
90.5524
 20
128.477
 30
0.0
 11
90.9394
 21
128.415
 31
0.0
  0
LINE
  8
0
 62
     0
 10
90.9394
 20
128.415
 30
0.0
 11
91.3253
 21
128.477
 31
0.0
  0
LINE
  8
0
 62
     0
 10
91.3253
 20
128.477
 30
0.0
 11
91.6739
 21
128.655
 31
0.0
  0
LINE
  8
0
 62
     0
 10
91.6739
 20
128.655
 30
0.0
 11
91.9508
 21
128.932
 31
0.0
  0
LINE
  8
0
 62
     0
 10
91.9508
 20
128.932
 30
0.0
 11
92.1272
 21
129.279
 31
0.0
  0
LINE
  8
0
 62
     0
 10
92.1272
 20
129.279
 30
0.0
 11
92.1893
 21
129.665
 31
0.0
  0
LINE
  8
0
 62
     0
 10
92.1893
 20
129.665
 30
0.0
 11
92.1272
 21
130.052
 31
0.0
  0
LINE
  8
0
 62
     0
 10
92.1272
 20
130.052
 30
0.0
 11
91.9508
 21
130.401
 31
0.0
  0
LINE
  8
0
 62
     0
 10
91.9508
 20
130.401
 30
0.0
 11
91.6739
 21
130.678
 31
0.0
  0
LINE
  8
0
 62
     0
 10
91.6739
 20
130.678
 30
0.0
 11
91.3253
 21
130.854
 31
0.0
  0
LINE
  8
0
 62
     0
 10
91.3253
 20
130.854
 30
0.0
 11
90.9394
 21
130.915
 31
0.0
  0
LINE
  8
0
 62
     0
 10
90.9394
 20
130.915
 30
0.0
 11
90.5524
 21
130.854
 31
0.0
  0
ENDSEC
  0
EOF
